<!DOCTYPE svg PUBLIC "-//W3C//DTD SVG 1.1//EN" "http://www.w3.org/Graphics/SVG/1.1/DTD/svg11.dtd">
<!-- Uploaded to: SVG Repo, www.svgrepo.com, Transformed by: SVG Repo Mixer Tools -->
<svg fill="#000000" version="1.1" id="Capa_1" xmlns="http://www.w3.org/2000/svg" xmlns:xlink="http://www.w3.org/1999/xlink" width="800px" height="800px" viewBox="0 0 612 612" xml:space="preserve">
<g id="SVGRepo_bgCarrier" stroke-width="0"/>
<g id="SVGRepo_tracerCarrier" stroke-linecap="round" stroke-linejoin="round"/>
<g id="SVGRepo_iconCarrier"> <g> <path d="M442.448,183.245c35.25-35.08,57.113-83.589,57.113-137.121C499.562,20.651,478.911,0,453.437,0H158.588 c-25.473,0-46.124,20.651-46.124,46.125c0,53.529,21.862,102.039,57.102,137.121C87.886,230.569,32.669,318.718,32.669,419.73 C32.669,612,231.241,612,306,612c74.76,0,273.331,0,273.331-192.272C579.345,318.729,524.128,230.567,442.448,183.245z M396.323,534.537h-179.83c-15.814,0-26.555-10.7-26.555-23.998c0-10.741,6.43-20.584,18.015-24.486l17.132-5.575v-60.488h-7.697 c-14.996,0-27.45-12.006-27.45-27.042c0-15.023,12.454-27.478,27.45-27.478h7.697v-34.764c0-30.928,9.027-56.64,25.751-73.35 c17.632-17.593,42.936-27.465,76.025-27.465c38.111,0,63.48,13.311,82.338,32.577c6.062,6.022,10.291,12.889,10.291,23.603 c0,18.068-14.561,32.207-32.615,32.207c-11.582,0-19.318-5.575-23.576-9.871c-11.121-11.598-21.455-17.158-35.635-17.158 c-10.307,0-18,2.99-24.445,9.408c-6.878,6.866-11.148,18.068-11.148,31.759v33.052h72.902c15.09,0,27.502,12.454,27.502,27.477 c0,15.037-12.412,27.043-27.502,27.043h-72.89v57.497h104.24c15.934,0,28.795,12.889,28.795,28.729 C425.118,522.124,412.259,534.537,396.323,534.537z"/> </g> </g>
</svg>